# xmcd
#
# Track frame offsets:
# 150
# 17396
# 28120
# 40565
# 66371
# 81094
# 97826
# 111800
# 123515
# 138678
# 151494
# 175015
#
# Disc length: 2537 seconds
#
#
# Revision: 0
# Processed by: cddbd v1.5.2PL0 Copyright (c) Steve Scherf et al.
# Submitted via: FreeRIP 2.944 
#
DISCID=9109e70c
DTITLE=Jazz favourites - Jazz favourites [CD1/4)
DYEAR=1998
DGENRE=Jazz
TTITLE0=Sarah Vaughan - When sunny gets blue
TTITLE1=Tony Bennett - One
TTITLE2=Eddie Harris - Moonglow
TTITLE3=Coleman Hawkins - Solitude
TTITLE4=Sarah Vaughan - Garden in the rain
TTITLE5=Tony Bennett - My romance
TTITLE6=Lena Horne - More than you know
TTITLE7=Count Basie - April in Paris
TTITLE8=Eddie Harris - The more I see you
TTITLE9=Joe Williams - Five o'clock in the morning
TTITLE10=Thelonious Monk - 'Round midnight
TTITLE11=Stanley Turrentine - Brown eyed woman
EXTD=
EXTT0=
EXTT1=
EXTT2=
EXTT3=
EXTT4=
EXTT5=
EXTT6=
EXTT7=
EXTT8=
EXTT9=
EXTT10=
EXTT11=
PLAYORDER=
